<svg xmlns="http://www.w3.org/2000/svg" viewBox="0 0 64 64">
  <defs><linearGradient id="g" x1="0" y1="0" x2="1" y2="1"><stop stop-color="#6847f2"/><stop offset="1" stop-color="#a47bff"/></linearGradient></defs>
  <rect width="64" height="64" rx="16" fill="url(#g)"/>
  <path d="M21 20c-5 2-6 9-2 12-4 4-1 12 5 12 2 4 8 3 8-2V22c0-5-7-7-11-2Zm22 0c5 2 6 9 2 12 4 4 1 12-5 12-2 4-8 3-8-2V22c0-5 7-7 11-2Z" fill="none" stroke="white" stroke-width="3" stroke-linecap="round"/>
  <path d="M23 27h5m-7 9h7m8-9h5m-5 9h7" stroke="white" stroke-width="3" stroke-linecap="round"/>
</svg>
