<svg xmlns="http://www.w3.org/2000/svg" viewBox="0 0 800 400" role="img"><title>AlphaZero on Connect-4 from Scratch abstract project artwork</title><defs><radialGradient id="glow"><stop stop-color="#5167d8" stop-opacity=".5"/><stop offset="1" stop-color="#111833" stop-opacity="0"/></radialGradient><linearGradient id="grid" x1="0" y1="0" x2="1" y2="1"><stop stop-color="#111833"/><stop offset="1" stop-color="#080b12"/></linearGradient></defs><rect width="800" height="400" fill="url(#grid)"/><circle cx="400" cy="190" r="245" fill="url(#glow)"/><g opacity=".12" stroke="#8ea0ff"><path d="M0 0H800M0 0V400"/><path d="M0 44H800M88 0V400"/><path d="M0 88H800M176 0V400"/><path d="M0 132H800M264 0V400"/><path d="M0 176H800M352 0V400"/><path d="M0 220H800M440 0V400"/><path d="M0 264H800M528 0V400"/><path d="M0 308H800M616 0V400"/><path d="M0 352H800M704 0V400"/><path d="M0 396H800M792 0V400"/></g><g fill="none" stroke="#5167d8" stroke-opacity=".38" stroke-width="2"><path d="M-251 -215 Q400 80 -338 -173"/><path d="M-338 -173 Q400 180 -340 -129"/><path d="M-340 -129 Q400 280 -299 -218"/><path d="M-299 -218 Q400 80 -237 31"/><path d="M-237 31 Q400 180 -165 -91"/><path d="M-165 -91 Q400 280 -87 -129"/><path d="M-87 -129 Q400 80 -337 11"/><path d="M-337 11 Q400 180 -90 -31"/></g><circle cx="-251" cy="-215" r="6" fill="#8ea0ff"/><circle cx="-338" cy="-173" r="9" fill="#5167d8"/><circle cx="-340" cy="-129" r="12" fill="#8ea0ff"/><circle cx="-299" cy="-218" r="6" fill="#5167d8"/><circle cx="-237" cy="31" r="9" fill="#8ea0ff"/><circle cx="-165" cy="-91" r="12" fill="#5167d8"/><circle cx="-87" cy="-129" r="6" fill="#8ea0ff"/><circle cx="-337" cy="11" r="9" fill="#5167d8"/><circle cx="-90" cy="-31" r="12" fill="#8ea0ff"/><g transform="translate(400 195)"><circle r="82" fill="#111833" fill-opacity=".78" stroke="#8ea0ff" stroke-width="2"/><circle r="67" fill="none" stroke="#5167d8" stroke-opacity=".4"/><text text-anchor="middle" dominant-baseline="central" fill="#f7f4ee" font-family="ui-sans-serif,system-ui" font-size="42" font-weight="750" letter-spacing="4">AOC</text></g><text x="26" y="370" fill="#8ea0ff" fill-opacity=".8" font-family="ui-monospace,monospace" font-size="12" letter-spacing="3">PROJECT 07 · 57 STEPS</text></svg>