<svg xmlns="http://www.w3.org/2000/svg" viewBox="0 0 800 400" role="img"><title>Attention Is All You Need: Build the Transformer From Scratch abstract project artwork</title><defs><radialGradient id="glow"><stop stop-color="#d97857" stop-opacity=".5"/><stop offset="1" stop-color="#2c1812" stop-opacity="0"/></radialGradient><linearGradient id="grid" x1="0" y1="0" x2="1" y2="1"><stop stop-color="#2c1812"/><stop offset="1" stop-color="#080b12"/></linearGradient></defs><rect width="800" height="400" fill="url(#grid)"/><circle cx="400" cy="190" r="245" fill="url(#glow)"/><g opacity=".12" stroke="#f2b190"><path d="M0 0H800M0 0V400"/><path d="M0 44H800M88 0V400"/><path d="M0 88H800M176 0V400"/><path d="M0 132H800M264 0V400"/><path d="M0 176H800M352 0V400"/><path d="M0 220H800M440 0V400"/><path d="M0 264H800M528 0V400"/><path d="M0 308H800M616 0V400"/><path d="M0 352H800M704 0V400"/><path d="M0 396H800M792 0V400"/></g><g fill="none" stroke="#d97857" stroke-opacity=".38" stroke-width="2"><path d="M348 113 Q400 80 292 126"/><path d="M292 126 Q400 180 305 156"/><path d="M305 156 Q400 280 353 59"/><path d="M353 59 Q400 80 419 169"/><path d="M419 169 Q400 180 493 248"/><path d="M493 248 Q400 280 242 176"/><path d="M242 176 Q400 80 158 298"/><path d="M158 298 Q400 180 487 113"/></g><circle cx="348" cy="113" r="6" fill="#f2b190"/><circle cx="292" cy="126" r="9" fill="#d97857"/><circle cx="305" cy="156" r="12" fill="#f2b190"/><circle cx="353" cy="59" r="6" fill="#d97857"/><circle cx="419" cy="169" r="9" fill="#f2b190"/><circle cx="493" cy="248" r="12" fill="#d97857"/><circle cx="242" cy="176" r="6" fill="#f2b190"/><circle cx="158" cy="298" r="9" fill="#d97857"/><circle cx="487" cy="113" r="12" fill="#f2b190"/><g transform="translate(400 195)"><circle r="82" fill="#2c1812" fill-opacity=".78" stroke="#f2b190" stroke-width="2"/><circle r="67" fill="none" stroke="#d97857" stroke-opacity=".4"/><text text-anchor="middle" dominant-baseline="central" fill="#f7f4ee" font-family="ui-sans-serif,system-ui" font-size="42" font-weight="750" letter-spacing="4">AIA</text></g><text x="26" y="370" fill="#f2b190" fill-opacity=".8" font-family="ui-monospace,monospace" font-size="12" letter-spacing="3">PROJECT 04 · 79 STEPS</text></svg>