<svg xmlns="http://www.w3.org/2000/svg" viewBox="0 0 800 400" role="img"><title>Build a Trainable CNN from Scratch in NumPy abstract project artwork</title><defs><radialGradient id="glow"><stop stop-color="#d85c8d" stop-opacity=".5"/><stop offset="1" stop-color="#30131f" stop-opacity="0"/></radialGradient><linearGradient id="grid" x1="0" y1="0" x2="1" y2="1"><stop stop-color="#30131f"/><stop offset="1" stop-color="#080b12"/></linearGradient></defs><rect width="800" height="400" fill="url(#grid)"/><circle cx="400" cy="190" r="245" fill="url(#glow)"/><g opacity=".12" stroke="#ff9bc0"><path d="M0 0H800M0 0V400"/><path d="M0 44H800M88 0V400"/><path d="M0 88H800M176 0V400"/><path d="M0 132H800M264 0V400"/><path d="M0 176H800M352 0V400"/><path d="M0 220H800M440 0V400"/><path d="M0 264H800M528 0V400"/><path d="M0 308H800M616 0V400"/><path d="M0 352H800M704 0V400"/><path d="M0 396H800M792 0V400"/></g><g fill="none" stroke="#d85c8d" stroke-opacity=".38" stroke-width="2"><path d="M-204 -103 Q400 80 16 18"/><path d="M16 18 Q400 180 -163 -33"/><path d="M-163 -33 Q400 280 -211 -35"/><path d="M-211 -35 Q400 80 -193 -13"/><path d="M-193 -13 Q400 180 -143 22"/><path d="M-143 22 Q400 280 -76 -72"/><path d="M-76 -72 Q400 80 -331 39"/><path d="M-331 39 Q400 180 -417 -152"/></g><circle cx="-204" cy="-103" r="6" fill="#ff9bc0"/><circle cx="16" cy="18" r="9" fill="#d85c8d"/><circle cx="-163" cy="-33" r="12" fill="#ff9bc0"/><circle cx="-211" cy="-35" r="6" fill="#d85c8d"/><circle cx="-193" cy="-13" r="9" fill="#ff9bc0"/><circle cx="-143" cy="22" r="12" fill="#d85c8d"/><circle cx="-76" cy="-72" r="6" fill="#ff9bc0"/><circle cx="-331" cy="39" r="9" fill="#d85c8d"/><circle cx="-417" cy="-152" r="12" fill="#ff9bc0"/><g transform="translate(400 195)"><circle r="82" fill="#30131f" fill-opacity=".78" stroke="#ff9bc0" stroke-width="2"/><circle r="67" fill="none" stroke="#d85c8d" stroke-opacity=".4"/><text text-anchor="middle" dominant-baseline="central" fill="#f7f4ee" font-family="ui-sans-serif,system-ui" font-size="42" font-weight="750" letter-spacing="4">BAT</text></g><text x="26" y="370" fill="#ff9bc0" fill-opacity=".8" font-family="ui-monospace,monospace" font-size="12" letter-spacing="3">PROJECT 03 · 59 STEPS</text></svg>