<svg xmlns="http://www.w3.org/2000/svg" viewBox="0 0 800 400" role="img"><title>RAG Pipeline abstract project artwork</title><defs><radialGradient id="glow"><stop stop-color="#8e58d8" stop-opacity=".5"/><stop offset="1" stop-color="#21112e" stop-opacity="0"/></radialGradient><linearGradient id="grid" x1="0" y1="0" x2="1" y2="1"><stop stop-color="#21112e"/><stop offset="1" stop-color="#080b12"/></linearGradient></defs><rect width="800" height="400" fill="url(#grid)"/><circle cx="400" cy="190" r="245" fill="url(#glow)"/><g opacity=".12" stroke="#d28cff"><path d="M0 0H800M0 0V400"/><path d="M0 44H800M88 0V400"/><path d="M0 88H800M176 0V400"/><path d="M0 132H800M264 0V400"/><path d="M0 176H800M352 0V400"/><path d="M0 220H800M440 0V400"/><path d="M0 264H800M528 0V400"/><path d="M0 308H800M616 0V400"/><path d="M0 352H800M704 0V400"/><path d="M0 396H800M792 0V400"/></g><g fill="none" stroke="#8e58d8" stroke-opacity=".38" stroke-width="2"><path d="M-193 -37 Q400 80 -309 -219"/><path d="M-309 -219 Q400 180 5 -17"/><path d="M5 -17 Q400 280 -127 -27"/><path d="M-127 -27 Q400 80 -481 -9"/><path d="M-481 -9 Q400 180 43 -111"/><path d="M43 -111 Q400 280 17 -139"/><path d="M17 -139 Q400 80 45 6"/><path d="M45 6 Q400 180 -229 -168"/></g><circle cx="-193" cy="-37" r="6" fill="#d28cff"/><circle cx="-309" cy="-219" r="9" fill="#8e58d8"/><circle cx="5" cy="-17" r="12" fill="#d28cff"/><circle cx="-127" cy="-27" r="6" fill="#8e58d8"/><circle cx="-481" cy="-9" r="9" fill="#d28cff"/><circle cx="43" cy="-111" r="12" fill="#8e58d8"/><circle cx="17" cy="-139" r="6" fill="#d28cff"/><circle cx="45" cy="6" r="9" fill="#8e58d8"/><circle cx="-229" cy="-168" r="12" fill="#d28cff"/><g transform="translate(400 195)"><circle r="82" fill="#21112e" fill-opacity=".78" stroke="#d28cff" stroke-width="2"/><circle r="67" fill="none" stroke="#8e58d8" stroke-opacity=".4"/><text text-anchor="middle" dominant-baseline="central" fill="#f7f4ee" font-family="ui-sans-serif,system-ui" font-size="42" font-weight="750" letter-spacing="4">RP</text></g><text x="26" y="370" fill="#d28cff" fill-opacity=".8" font-family="ui-monospace,monospace" font-size="12" letter-spacing="3">PROJECT 08 · 51 STEPS</text></svg>