<svg xmlns="http://www.w3.org/2000/svg" viewBox="0 0 800 400" role="img"><title>Build an MLP in JAX from Scratch abstract project artwork</title><defs><radialGradient id="glow"><stop stop-color="#d97857" stop-opacity=".5"/><stop offset="1" stop-color="#2c1812" stop-opacity="0"/></radialGradient><linearGradient id="grid" x1="0" y1="0" x2="1" y2="1"><stop stop-color="#2c1812"/><stop offset="1" stop-color="#080b12"/></linearGradient></defs><rect width="800" height="400" fill="url(#grid)"/><circle cx="400" cy="190" r="245" fill="url(#glow)"/><g opacity=".12" stroke="#f2b190"><path d="M0 0H800M0 0V400"/><path d="M0 44H800M88 0V400"/><path d="M0 88H800M176 0V400"/><path d="M0 132H800M264 0V400"/><path d="M0 176H800M352 0V400"/><path d="M0 220H800M440 0V400"/><path d="M0 264H800M528 0V400"/><path d="M0 308H800M616 0V400"/><path d="M0 352H800M704 0V400"/><path d="M0 396H800M792 0V400"/></g><g fill="none" stroke="#d97857" stroke-opacity=".38" stroke-width="2"><path d="M-205 -88 Q400 80 15 -110"/><path d="M15 -110 Q400 180 -163 38"/><path d="M-163 38 Q400 280 -211 -135"/><path d="M-211 -135 Q400 80 -523 -198"/><path d="M-523 -198 Q400 180 22 -206"/><path d="M22 -206 Q400 280 6 -51"/><path d="M6 -51 Q400 80 -290 -85"/><path d="M-290 -85 Q400 180 -67 -214"/></g><circle cx="-205" cy="-88" r="6" fill="#f2b190"/><circle cx="15" cy="-110" r="9" fill="#d97857"/><circle cx="-163" cy="38" r="12" fill="#f2b190"/><circle cx="-211" cy="-135" r="6" fill="#d97857"/><circle cx="-523" cy="-198" r="9" fill="#f2b190"/><circle cx="22" cy="-206" r="12" fill="#d97857"/><circle cx="6" cy="-51" r="6" fill="#f2b190"/><circle cx="-290" cy="-85" r="9" fill="#d97857"/><circle cx="-67" cy="-214" r="12" fill="#f2b190"/><g transform="translate(400 195)"><circle r="82" fill="#2c1812" fill-opacity=".78" stroke="#f2b190" stroke-width="2"/><circle r="67" fill="none" stroke="#d97857" stroke-opacity=".4"/><text text-anchor="middle" dominant-baseline="central" fill="#f7f4ee" font-family="ui-sans-serif,system-ui" font-size="42" font-weight="750" letter-spacing="4">BAM</text></g><text x="26" y="370" fill="#f2b190" fill-opacity=".8" font-family="ui-monospace,monospace" font-size="12" letter-spacing="3">PROJECT 16 · 21 STEPS</text></svg>