<svg xmlns="http://www.w3.org/2000/svg" viewBox="0 0 800 400" role="img"><title>DiLoCo: Distributed Low-Communication Training of Language Models abstract project artwork</title><defs><radialGradient id="glow"><stop stop-color="#5167d8" stop-opacity=".5"/><stop offset="1" stop-color="#111833" stop-opacity="0"/></radialGradient><linearGradient id="grid" x1="0" y1="0" x2="1" y2="1"><stop stop-color="#111833"/><stop offset="1" stop-color="#080b12"/></linearGradient></defs><rect width="800" height="400" fill="url(#grid)"/><circle cx="400" cy="190" r="245" fill="url(#glow)"/><g opacity=".12" stroke="#8ea0ff"><path d="M0 0H800M0 0V400"/><path d="M0 44H800M88 0V400"/><path d="M0 88H800M176 0V400"/><path d="M0 132H800M264 0V400"/><path d="M0 176H800M352 0V400"/><path d="M0 220H800M440 0V400"/><path d="M0 264H800M528 0V400"/><path d="M0 308H800M616 0V400"/><path d="M0 352H800M704 0V400"/><path d="M0 396H800M792 0V400"/></g><g fill="none" stroke="#5167d8" stroke-opacity=".38" stroke-width="2"><path d="M710 192 Q400 80 473 300"/><path d="M473 300 Q400 180 396 108"/><path d="M396 108 Q400 280 729 170"/><path d="M729 170 Q400 80 277 90"/><path d="M277 90 Q400 180 422 73"/><path d="M422 73 Q400 280 206 88"/><path d="M206 88 Q400 80 140 119"/><path d="M140 119 Q400 180 148 158"/></g><circle cx="710" cy="192" r="6" fill="#8ea0ff"/><circle cx="473" cy="300" r="9" fill="#5167d8"/><circle cx="396" cy="108" r="12" fill="#8ea0ff"/><circle cx="729" cy="170" r="6" fill="#5167d8"/><circle cx="277" cy="90" r="9" fill="#8ea0ff"/><circle cx="422" cy="73" r="12" fill="#5167d8"/><circle cx="206" cy="88" r="6" fill="#8ea0ff"/><circle cx="140" cy="119" r="9" fill="#5167d8"/><circle cx="148" cy="158" r="12" fill="#8ea0ff"/><g transform="translate(400 195)"><circle r="82" fill="#111833" fill-opacity=".78" stroke="#8ea0ff" stroke-width="2"/><circle r="67" fill="none" stroke="#5167d8" stroke-opacity=".4"/><text text-anchor="middle" dominant-baseline="central" fill="#f7f4ee" font-family="ui-sans-serif,system-ui" font-size="42" font-weight="750" letter-spacing="4">DDL</text></g><text x="26" y="370" fill="#8ea0ff" fill-opacity=".8" font-family="ui-monospace,monospace" font-size="12" letter-spacing="3">PROJECT 19 · 30 STEPS</text></svg>