<svg xmlns="http://www.w3.org/2000/svg" viewBox="0 0 800 400" role="img"><title>Direct Preference Optimization (DPO) from Scratch abstract project artwork</title><defs><radialGradient id="glow"><stop stop-color="#d85c8d" stop-opacity=".5"/><stop offset="1" stop-color="#30131f" stop-opacity="0"/></radialGradient><linearGradient id="grid" x1="0" y1="0" x2="1" y2="1"><stop stop-color="#30131f"/><stop offset="1" stop-color="#080b12"/></linearGradient></defs><rect width="800" height="400" fill="url(#grid)"/><circle cx="400" cy="190" r="245" fill="url(#glow)"/><g opacity=".12" stroke="#ff9bc0"><path d="M0 0H800M0 0V400"/><path d="M0 44H800M88 0V400"/><path d="M0 88H800M176 0V400"/><path d="M0 132H800M264 0V400"/><path d="M0 176H800M352 0V400"/><path d="M0 220H800M440 0V400"/><path d="M0 264H800M528 0V400"/><path d="M0 308H800M616 0V400"/><path d="M0 352H800M704 0V400"/><path d="M0 396H800M792 0V400"/></g><g fill="none" stroke="#d85c8d" stroke-opacity=".38" stroke-width="2"><path d="M-506 -144 Q400 80 -465 -3"/><path d="M-465 -3 Q400 180 -73 -179"/><path d="M-73 -179 Q400 280 -496 27"/><path d="M-496 27 Q400 80 -336 -117"/><path d="M-336 -117 Q400 180 -544 -30"/><path d="M-544 -30 Q400 280 53 -98"/><path d="M53 -98 Q400 80 -267 26"/><path d="M-267 26 Q400 180 -385 -23"/></g><circle cx="-506" cy="-144" r="6" fill="#ff9bc0"/><circle cx="-465" cy="-3" r="9" fill="#d85c8d"/><circle cx="-73" cy="-179" r="12" fill="#ff9bc0"/><circle cx="-496" cy="27" r="6" fill="#d85c8d"/><circle cx="-336" cy="-117" r="9" fill="#ff9bc0"/><circle cx="-544" cy="-30" r="12" fill="#d85c8d"/><circle cx="53" cy="-98" r="6" fill="#ff9bc0"/><circle cx="-267" cy="26" r="9" fill="#d85c8d"/><circle cx="-385" cy="-23" r="12" fill="#ff9bc0"/><g transform="translate(400 195)"><circle r="82" fill="#30131f" fill-opacity=".78" stroke="#ff9bc0" stroke-width="2"/><circle r="67" fill="none" stroke="#d85c8d" stroke-opacity=".4"/><text text-anchor="middle" dominant-baseline="central" fill="#f7f4ee" font-family="ui-sans-serif,system-ui" font-size="42" font-weight="750" letter-spacing="4">DPO</text></g><text x="26" y="370" fill="#ff9bc0" fill-opacity=".8" font-family="ui-monospace,monospace" font-size="12" letter-spacing="3">PROJECT 09 · 27 STEPS</text></svg>