<svg xmlns="http://www.w3.org/2000/svg" viewBox="0 0 800 400" role="img"><title>Federated Averaging (FedAvg) from Scratch in PyTorch abstract project artwork</title><defs><radialGradient id="glow"><stop stop-color="#c29a36" stop-opacity=".5"/><stop offset="1" stop-color="#2d2510" stop-opacity="0"/></radialGradient><linearGradient id="grid" x1="0" y1="0" x2="1" y2="1"><stop stop-color="#2d2510"/><stop offset="1" stop-color="#080b12"/></linearGradient></defs><rect width="800" height="400" fill="url(#grid)"/><circle cx="400" cy="190" r="245" fill="url(#glow)"/><g opacity=".12" stroke="#f3d77e"><path d="M0 0H800M0 0V400"/><path d="M0 44H800M88 0V400"/><path d="M0 88H800M176 0V400"/><path d="M0 132H800M264 0V400"/><path d="M0 176H800M352 0V400"/><path d="M0 220H800M440 0V400"/><path d="M0 264H800M528 0V400"/><path d="M0 308H800M616 0V400"/><path d="M0 352H800M704 0V400"/><path d="M0 396H800M792 0V400"/></g><g fill="none" stroke="#c29a36" stroke-opacity=".38" stroke-width="2"><path d="M-450 -37 Q400 80 -437 -84"/><path d="M-437 -84 Q400 180 -59 -84"/><path d="M-59 -84 Q400 280 -489 -196"/><path d="M-489 -196 Q400 80 -2 -93"/><path d="M-2 -93 Q400 180 -47 -18"/><path d="M-47 -18 Q400 280 -358 -92"/><path d="M-358 -92 Q400 80 -472 -106"/><path d="M-472 -106 Q400 180 -158 -89"/></g><circle cx="-450" cy="-37" r="6" fill="#f3d77e"/><circle cx="-437" cy="-84" r="9" fill="#c29a36"/><circle cx="-59" cy="-84" r="12" fill="#f3d77e"/><circle cx="-489" cy="-196" r="6" fill="#c29a36"/><circle cx="-2" cy="-93" r="9" fill="#f3d77e"/><circle cx="-47" cy="-18" r="12" fill="#c29a36"/><circle cx="-358" cy="-92" r="6" fill="#f3d77e"/><circle cx="-472" cy="-106" r="9" fill="#c29a36"/><circle cx="-158" cy="-89" r="12" fill="#f3d77e"/><g transform="translate(400 195)"><circle r="82" fill="#2d2510" fill-opacity=".78" stroke="#f3d77e" stroke-width="2"/><circle r="67" fill="none" stroke="#c29a36" stroke-opacity=".4"/><text text-anchor="middle" dominant-baseline="central" fill="#f7f4ee" font-family="ui-sans-serif,system-ui" font-size="42" font-weight="750" letter-spacing="4">FA(</text></g><text x="26" y="370" fill="#f3d77e" fill-opacity=".8" font-family="ui-monospace,monospace" font-size="12" letter-spacing="3">PROJECT 18 · 26 STEPS</text></svg>