<svg xmlns="http://www.w3.org/2000/svg" viewBox="0 0 800 400" role="img"><title>Flash Attention in CUDA from Scratch abstract project artwork</title><defs><radialGradient id="glow"><stop stop-color="#c29a36" stop-opacity=".5"/><stop offset="1" stop-color="#2d2510" stop-opacity="0"/></radialGradient><linearGradient id="grid" x1="0" y1="0" x2="1" y2="1"><stop stop-color="#2d2510"/><stop offset="1" stop-color="#080b12"/></linearGradient></defs><rect width="800" height="400" fill="url(#grid)"/><circle cx="400" cy="190" r="245" fill="url(#glow)"/><g opacity=".12" stroke="#f3d77e"><path d="M0 0H800M0 0V400"/><path d="M0 44H800M88 0V400"/><path d="M0 88H800M176 0V400"/><path d="M0 132H800M264 0V400"/><path d="M0 176H800M352 0V400"/><path d="M0 220H800M440 0V400"/><path d="M0 264H800M528 0V400"/><path d="M0 308H800M616 0V400"/><path d="M0 352H800M704 0V400"/><path d="M0 396H800M792 0V400"/></g><g fill="none" stroke="#c29a36" stroke-opacity=".38" stroke-width="2"><path d="M-442 -196 Q400 80 -103 -164"/><path d="M-103 -164 Q400 180 -552 11"/><path d="M-552 11 Q400 280 -405 -13"/><path d="M-405 -13 Q400 80 40 -137"/><path d="M40 -137 Q400 180 -26 -40"/><path d="M-26 -40 Q400 280 -348 -103"/><path d="M-348 -103 Q400 80 -467 -111"/><path d="M-467 -111 Q400 180 -485 -92"/></g><circle cx="-442" cy="-196" r="6" fill="#f3d77e"/><circle cx="-103" cy="-164" r="9" fill="#c29a36"/><circle cx="-552" cy="11" r="12" fill="#f3d77e"/><circle cx="-405" cy="-13" r="6" fill="#c29a36"/><circle cx="40" cy="-137" r="9" fill="#f3d77e"/><circle cx="-26" cy="-40" r="12" fill="#c29a36"/><circle cx="-348" cy="-103" r="6" fill="#f3d77e"/><circle cx="-467" cy="-111" r="9" fill="#c29a36"/><circle cx="-485" cy="-92" r="12" fill="#f3d77e"/><g transform="translate(400 195)"><circle r="82" fill="#2d2510" fill-opacity=".78" stroke="#f3d77e" stroke-width="2"/><circle r="67" fill="none" stroke="#c29a36" stroke-opacity=".4"/><text text-anchor="middle" dominant-baseline="central" fill="#f7f4ee" font-family="ui-sans-serif,system-ui" font-size="42" font-weight="750" letter-spacing="4">FAI</text></g><text x="26" y="370" fill="#f3d77e" fill-opacity=".8" font-family="ui-monospace,monospace" font-size="12" letter-spacing="3">PROJECT 12 · 26 STEPS</text></svg>