<svg xmlns="http://www.w3.org/2000/svg" viewBox="0 0 800 400" role="img"><title>LoRA Fine-Tune a Tiny Chat Model with Unsloth abstract project artwork</title><defs><radialGradient id="glow"><stop stop-color="#3f9f85" stop-opacity=".5"/><stop offset="1" stop-color="#102a24" stop-opacity="0"/></radialGradient><linearGradient id="grid" x1="0" y1="0" x2="1" y2="1"><stop stop-color="#102a24"/><stop offset="1" stop-color="#080b12"/></linearGradient></defs><rect width="800" height="400" fill="url(#grid)"/><circle cx="400" cy="190" r="245" fill="url(#glow)"/><g opacity=".12" stroke="#86dac1"><path d="M0 0H800M0 0V400"/><path d="M0 44H800M88 0V400"/><path d="M0 88H800M176 0V400"/><path d="M0 132H800M264 0V400"/><path d="M0 176H800M352 0V400"/><path d="M0 220H800M440 0V400"/><path d="M0 264H800M528 0V400"/><path d="M0 308H800M616 0V400"/><path d="M0 352H800M704 0V400"/><path d="M0 396H800M792 0V400"/></g><g fill="none" stroke="#3f9f85" stroke-opacity=".38" stroke-width="2"><path d="M-330 -92 Q400 80 -47 -112"/><path d="M-47 -112 Q400 180 -194 -98"/><path d="M-194 -98 Q400 280 -226 -203"/><path d="M-226 -203 Q400 80 -531 -97"/><path d="M-531 -97 Q400 180 18 -155"/><path d="M18 -155 Q400 280 -326 -26"/><path d="M-326 -26 Q400 80 -126 -208"/><path d="M-126 -208 Q400 180 15 -140"/></g><circle cx="-330" cy="-92" r="6" fill="#86dac1"/><circle cx="-47" cy="-112" r="9" fill="#3f9f85"/><circle cx="-194" cy="-98" r="12" fill="#86dac1"/><circle cx="-226" cy="-203" r="6" fill="#3f9f85"/><circle cx="-531" cy="-97" r="9" fill="#86dac1"/><circle cx="18" cy="-155" r="12" fill="#3f9f85"/><circle cx="-326" cy="-26" r="6" fill="#86dac1"/><circle cx="-126" cy="-208" r="9" fill="#3f9f85"/><circle cx="15" cy="-140" r="12" fill="#86dac1"/><g transform="translate(400 195)"><circle r="82" fill="#102a24" fill-opacity=".78" stroke="#86dac1" stroke-width="2"/><circle r="67" fill="none" stroke="#3f9f85" stroke-opacity=".4"/><text text-anchor="middle" dominant-baseline="central" fill="#f7f4ee" font-family="ui-sans-serif,system-ui" font-size="42" font-weight="750" letter-spacing="4">LFA</text></g><text x="26" y="370" fill="#86dac1" fill-opacity=".8" font-family="ui-monospace,monospace" font-size="12" letter-spacing="3">PROJECT 23 · 20 STEPS</text></svg>