<svg xmlns="http://www.w3.org/2000/svg" viewBox="0 0 800 400" role="img"><title>Market-Making &amp; Betting-Game Simulator abstract project artwork</title><defs><radialGradient id="glow"><stop stop-color="#5167d8" stop-opacity=".5"/><stop offset="1" stop-color="#111833" stop-opacity="0"/></radialGradient><linearGradient id="grid" x1="0" y1="0" x2="1" y2="1"><stop stop-color="#111833"/><stop offset="1" stop-color="#080b12"/></linearGradient></defs><rect width="800" height="400" fill="url(#grid)"/><circle cx="400" cy="190" r="245" fill="url(#glow)"/><g opacity=".12" stroke="#8ea0ff"><path d="M0 0H800M0 0V400"/><path d="M0 44H800M88 0V400"/><path d="M0 88H800M176 0V400"/><path d="M0 132H800M264 0V400"/><path d="M0 176H800M352 0V400"/><path d="M0 220H800M440 0V400"/><path d="M0 264H800M528 0V400"/><path d="M0 308H800M616 0V400"/><path d="M0 352H800M704 0V400"/><path d="M0 396H800M792 0V400"/></g><g fill="none" stroke="#5167d8" stroke-opacity=".38" stroke-width="2"><path d="M701 203 Q400 80 468 306"/><path d="M468 306 Q400 180 723 111"/><path d="M723 111 Q400 280 232 172"/><path d="M232 172 Q400 80 358 91"/><path d="M358 91 Q400 180 133 209"/><path d="M133 209 Q400 280 392 291"/><path d="M392 291 Q400 80 563 86"/><path d="M563 86 Q400 180 690 142"/></g><circle cx="701" cy="203" r="6" fill="#8ea0ff"/><circle cx="468" cy="306" r="9" fill="#5167d8"/><circle cx="723" cy="111" r="12" fill="#8ea0ff"/><circle cx="232" cy="172" r="6" fill="#5167d8"/><circle cx="358" cy="91" r="9" fill="#8ea0ff"/><circle cx="133" cy="209" r="12" fill="#5167d8"/><circle cx="392" cy="291" r="6" fill="#8ea0ff"/><circle cx="563" cy="86" r="9" fill="#5167d8"/><circle cx="690" cy="142" r="12" fill="#8ea0ff"/><g transform="translate(400 195)"><circle r="82" fill="#111833" fill-opacity=".78" stroke="#8ea0ff" stroke-width="2"/><circle r="67" fill="none" stroke="#5167d8" stroke-opacity=".4"/><text text-anchor="middle" dominant-baseline="central" fill="#f7f4ee" font-family="ui-sans-serif,system-ui" font-size="42" font-weight="750" letter-spacing="4">MBS</text></g><text x="26" y="370" fill="#8ea0ff" fill-opacity=".8" font-family="ui-monospace,monospace" font-size="12" letter-spacing="3">PROJECT 25 · 14 STEPS</text></svg>