<svg xmlns="http://www.w3.org/2000/svg" viewBox="0 0 800 400" role="img"><title>Mini Distributed Training and Memory-Constrained Trainer from Scratch in NumPy abstract project artwork</title><defs><radialGradient id="glow"><stop stop-color="#8e58d8" stop-opacity=".5"/><stop offset="1" stop-color="#21112e" stop-opacity="0"/></radialGradient><linearGradient id="grid" x1="0" y1="0" x2="1" y2="1"><stop stop-color="#21112e"/><stop offset="1" stop-color="#080b12"/></linearGradient></defs><rect width="800" height="400" fill="url(#grid)"/><circle cx="400" cy="190" r="245" fill="url(#glow)"/><g opacity=".12" stroke="#d28cff"><path d="M0 0H800M0 0V400"/><path d="M0 44H800M88 0V400"/><path d="M0 88H800M176 0V400"/><path d="M0 132H800M264 0V400"/><path d="M0 176H800M352 0V400"/><path d="M0 220H800M440 0V400"/><path d="M0 264H800M528 0V400"/><path d="M0 308H800M616 0V400"/><path d="M0 352H800M704 0V400"/><path d="M0 396H800M792 0V400"/></g><g fill="none" stroke="#8e58d8" stroke-opacity=".38" stroke-width="2"><path d="M-334 -26 Q400 80 -379 -79"/><path d="M-379 -79 Q400 180 -30 -217"/><path d="M-30 -217 Q400 280 -144 8"/><path d="M-144 8 Q400 80 -160 9"/><path d="M-160 9 Q400 180 -456 -102"/><path d="M-456 -102 Q400 280 -563 -134"/><path d="M-563 -134 Q400 80 -245 -127"/><path d="M-245 -127 Q400 180 -374 -100"/></g><circle cx="-334" cy="-26" r="6" fill="#d28cff"/><circle cx="-379" cy="-79" r="9" fill="#8e58d8"/><circle cx="-30" cy="-217" r="12" fill="#d28cff"/><circle cx="-144" cy="8" r="6" fill="#8e58d8"/><circle cx="-160" cy="9" r="9" fill="#d28cff"/><circle cx="-456" cy="-102" r="12" fill="#8e58d8"/><circle cx="-563" cy="-134" r="6" fill="#d28cff"/><circle cx="-245" cy="-127" r="9" fill="#8e58d8"/><circle cx="-374" cy="-100" r="12" fill="#d28cff"/><g transform="translate(400 195)"><circle r="82" fill="#21112e" fill-opacity=".78" stroke="#d28cff" stroke-width="2"/><circle r="67" fill="none" stroke="#8e58d8" stroke-opacity=".4"/><text text-anchor="middle" dominant-baseline="central" fill="#f7f4ee" font-family="ui-sans-serif,system-ui" font-size="42" font-weight="750" letter-spacing="4">MDT</text></g><text x="26" y="370" fill="#d28cff" fill-opacity=".8" font-family="ui-monospace,monospace" font-size="12" letter-spacing="3">PROJECT 20 · 40 STEPS</text></svg>