<svg xmlns="http://www.w3.org/2000/svg" viewBox="0 0 800 400" role="img"><title>Multimodal Autoregressive Image Generator from Scratch in JAX abstract project artwork</title><defs><radialGradient id="glow"><stop stop-color="#d97857" stop-opacity=".5"/><stop offset="1" stop-color="#2c1812" stop-opacity="0"/></radialGradient><linearGradient id="grid" x1="0" y1="0" x2="1" y2="1"><stop stop-color="#2c1812"/><stop offset="1" stop-color="#080b12"/></linearGradient></defs><rect width="800" height="400" fill="url(#grid)"/><circle cx="400" cy="190" r="245" fill="url(#glow)"/><g opacity=".12" stroke="#f2b190"><path d="M0 0H800M0 0V400"/><path d="M0 44H800M88 0V400"/><path d="M0 88H800M176 0V400"/><path d="M0 132H800M264 0V400"/><path d="M0 176H800M352 0V400"/><path d="M0 220H800M440 0V400"/><path d="M0 264H800M528 0V400"/><path d="M0 308H800M616 0V400"/><path d="M0 352H800M704 0V400"/><path d="M0 396H800M792 0V400"/></g><g fill="none" stroke="#d97857" stroke-opacity=".38" stroke-width="2"><path d="M-166 -62 Q400 80 -295 38"/><path d="M-295 38 Q400 180 -318 -158"/><path d="M-318 -158 Q400 280 -288 -98"/><path d="M-288 -98 Q400 80 -232 -179"/><path d="M-232 -179 Q400 180 -162 -61"/><path d="M-162 -61 Q400 280 -86 -114"/><path d="M-86 -114 Q400 80 -336 18"/><path d="M-336 18 Q400 180 -90 -162"/></g><circle cx="-166" cy="-62" r="6" fill="#f2b190"/><circle cx="-295" cy="38" r="9" fill="#d97857"/><circle cx="-318" cy="-158" r="12" fill="#f2b190"/><circle cx="-288" cy="-98" r="6" fill="#d97857"/><circle cx="-232" cy="-179" r="9" fill="#f2b190"/><circle cx="-162" cy="-61" r="12" fill="#d97857"/><circle cx="-86" cy="-114" r="6" fill="#f2b190"/><circle cx="-336" cy="18" r="9" fill="#d97857"/><circle cx="-90" cy="-162" r="12" fill="#f2b190"/><g transform="translate(400 195)"><circle r="82" fill="#2c1812" fill-opacity=".78" stroke="#f2b190" stroke-width="2"/><circle r="67" fill="none" stroke="#d97857" stroke-opacity=".4"/><text text-anchor="middle" dominant-baseline="central" fill="#f7f4ee" font-family="ui-sans-serif,system-ui" font-size="42" font-weight="750" letter-spacing="4">MAI</text></g><text x="26" y="370" fill="#f2b190" fill-opacity=".8" font-family="ui-monospace,monospace" font-size="12" letter-spacing="3">PROJECT 22 · 64 STEPS</text></svg>