<svg xmlns="http://www.w3.org/2000/svg" viewBox="0 0 800 400" role="img"><title>Random Forest from Scratch abstract project artwork</title><defs><radialGradient id="glow"><stop stop-color="#5167d8" stop-opacity=".5"/><stop offset="1" stop-color="#111833" stop-opacity="0"/></radialGradient><linearGradient id="grid" x1="0" y1="0" x2="1" y2="1"><stop stop-color="#111833"/><stop offset="1" stop-color="#080b12"/></linearGradient></defs><rect width="800" height="400" fill="url(#grid)"/><circle cx="400" cy="190" r="245" fill="url(#glow)"/><g opacity=".12" stroke="#8ea0ff"><path d="M0 0H800M0 0V400"/><path d="M0 44H800M88 0V400"/><path d="M0 88H800M176 0V400"/><path d="M0 132H800M264 0V400"/><path d="M0 176H800M352 0V400"/><path d="M0 220H800M440 0V400"/><path d="M0 264H800M528 0V400"/><path d="M0 308H800M616 0V400"/><path d="M0 352H800M704 0V400"/><path d="M0 396H800M792 0V400"/></g><g fill="none" stroke="#5167d8" stroke-opacity=".38" stroke-width="2"><path d="M694 85 Q400 80 135 247"/><path d="M135 247 Q400 180 557 216"/><path d="M557 216 Q400 280 479 224"/><path d="M479 224 Q400 80 482 117"/><path d="M482 117 Q400 180 195 87"/><path d="M195 87 Q400 280 423 230"/><path d="M423 230 Q400 80 248 190"/><path d="M248 190 Q400 180 202 59"/></g><circle cx="694" cy="85" r="6" fill="#8ea0ff"/><circle cx="135" cy="247" r="9" fill="#5167d8"/><circle cx="557" cy="216" r="12" fill="#8ea0ff"/><circle cx="479" cy="224" r="6" fill="#5167d8"/><circle cx="482" cy="117" r="9" fill="#8ea0ff"/><circle cx="195" cy="87" r="12" fill="#5167d8"/><circle cx="423" cy="230" r="6" fill="#8ea0ff"/><circle cx="248" cy="190" r="9" fill="#5167d8"/><circle cx="202" cy="59" r="12" fill="#8ea0ff"/><g transform="translate(400 195)"><circle r="82" fill="#111833" fill-opacity=".78" stroke="#8ea0ff" stroke-width="2"/><circle r="67" fill="none" stroke="#5167d8" stroke-opacity=".4"/><text text-anchor="middle" dominant-baseline="central" fill="#f7f4ee" font-family="ui-sans-serif,system-ui" font-size="42" font-weight="750" letter-spacing="4">RFF</text></g><text x="26" y="370" fill="#8ea0ff" fill-opacity=".8" font-family="ui-monospace,monospace" font-size="12" letter-spacing="3">PROJECT 01 · 15 STEPS</text></svg>