<svg xmlns="http://www.w3.org/2000/svg" viewBox="0 0 800 400" role="img"><title>Reinforcement Learning for Tic-Tac-Toe: From Minimax to DQN abstract project artwork</title><defs><radialGradient id="glow"><stop stop-color="#8e58d8" stop-opacity=".5"/><stop offset="1" stop-color="#21112e" stop-opacity="0"/></radialGradient><linearGradient id="grid" x1="0" y1="0" x2="1" y2="1"><stop stop-color="#21112e"/><stop offset="1" stop-color="#080b12"/></linearGradient></defs><rect width="800" height="400" fill="url(#grid)"/><circle cx="400" cy="190" r="245" fill="url(#glow)"/><g opacity=".12" stroke="#d28cff"><path d="M0 0H800M0 0V400"/><path d="M0 44H800M88 0V400"/><path d="M0 88H800M176 0V400"/><path d="M0 132H800M264 0V400"/><path d="M0 176H800M352 0V400"/><path d="M0 220H800M440 0V400"/><path d="M0 264H800M528 0V400"/><path d="M0 308H800M616 0V400"/><path d="M0 352H800M704 0V400"/><path d="M0 396H800M792 0V400"/></g><g fill="none" stroke="#8e58d8" stroke-opacity=".38" stroke-width="2"><path d="M99 55 Q400 80 497 232"/><path d="M497 232 Q400 180 78 209"/><path d="M78 209 Q400 280 240 221"/><path d="M240 221 Q400 80 362 250"/><path d="M362 250 Q400 180 465 153"/><path d="M465 153 Q400 280 228 263"/><path d="M228 263 Q400 80 481 72"/><path d="M481 72 Q400 180 649 270"/></g><circle cx="99" cy="55" r="6" fill="#d28cff"/><circle cx="497" cy="232" r="9" fill="#8e58d8"/><circle cx="78" cy="209" r="12" fill="#d28cff"/><circle cx="240" cy="221" r="6" fill="#8e58d8"/><circle cx="362" cy="250" r="9" fill="#d28cff"/><circle cx="465" cy="153" r="12" fill="#8e58d8"/><circle cx="228" cy="263" r="6" fill="#d28cff"/><circle cx="481" cy="72" r="9" fill="#8e58d8"/><circle cx="649" cy="270" r="12" fill="#d28cff"/><g transform="translate(400 195)"><circle r="82" fill="#21112e" fill-opacity=".78" stroke="#d28cff" stroke-width="2"/><circle r="67" fill="none" stroke="#8e58d8" stroke-opacity=".4"/><text text-anchor="middle" dominant-baseline="central" fill="#f7f4ee" font-family="ui-sans-serif,system-ui" font-size="42" font-weight="750" letter-spacing="4">RLF</text></g><text x="26" y="370" fill="#d28cff" fill-opacity=".8" font-family="ui-monospace,monospace" font-size="12" letter-spacing="3">PROJECT 26 · 92 STEPS</text></svg>