<svg xmlns="http://www.w3.org/2000/svg" viewBox="0 0 800 400" role="img"><title>RLHF from Scratch on DistilGPT2 abstract project artwork</title><defs><radialGradient id="glow"><stop stop-color="#d97857" stop-opacity=".5"/><stop offset="1" stop-color="#2c1812" stop-opacity="0"/></radialGradient><linearGradient id="grid" x1="0" y1="0" x2="1" y2="1"><stop stop-color="#2c1812"/><stop offset="1" stop-color="#080b12"/></linearGradient></defs><rect width="800" height="400" fill="url(#grid)"/><circle cx="400" cy="190" r="245" fill="url(#glow)"/><g opacity=".12" stroke="#f2b190"><path d="M0 0H800M0 0V400"/><path d="M0 44H800M88 0V400"/><path d="M0 88H800M176 0V400"/><path d="M0 132H800M264 0V400"/><path d="M0 176H800M352 0V400"/><path d="M0 220H800M440 0V400"/><path d="M0 264H800M528 0V400"/><path d="M0 308H800M616 0V400"/><path d="M0 352H800M704 0V400"/><path d="M0 396H800M792 0V400"/></g><g fill="none" stroke="#d97857" stroke-opacity=".38" stroke-width="2"><path d="M648 158 Q400 80 112 148"/><path d="M112 148 Q400 180 545 167"/><path d="M545 167 Q400 280 473 200"/><path d="M473 200 Q400 80 149 105"/><path d="M149 105 Q400 180 358 216"/><path d="M358 216 Q400 280 504 160"/><path d="M504 160 Q400 80 619 290"/><path d="M619 290 Q400 180 718 244"/></g><circle cx="648" cy="158" r="6" fill="#f2b190"/><circle cx="112" cy="148" r="9" fill="#d97857"/><circle cx="545" cy="167" r="12" fill="#f2b190"/><circle cx="473" cy="200" r="6" fill="#d97857"/><circle cx="149" cy="105" r="9" fill="#f2b190"/><circle cx="358" cy="216" r="12" fill="#d97857"/><circle cx="504" cy="160" r="6" fill="#f2b190"/><circle cx="619" cy="290" r="9" fill="#d97857"/><circle cx="718" cy="244" r="12" fill="#f2b190"/><g transform="translate(400 195)"><circle r="82" fill="#2c1812" fill-opacity=".78" stroke="#f2b190" stroke-width="2"/><circle r="67" fill="none" stroke="#d97857" stroke-opacity=".4"/><text text-anchor="middle" dominant-baseline="central" fill="#f7f4ee" font-family="ui-sans-serif,system-ui" font-size="42" font-weight="750" letter-spacing="4">RFS</text></g><text x="26" y="370" fill="#f2b190" fill-opacity=".8" font-family="ui-monospace,monospace" font-size="12" letter-spacing="3">PROJECT 10 · 65 STEPS</text></svg>