<svg xmlns="http://www.w3.org/2000/svg" viewBox="0 0 800 400" role="img"><title>Support Vector Machine from Scratch abstract project artwork</title><defs><radialGradient id="glow"><stop stop-color="#8e58d8" stop-opacity=".5"/><stop offset="1" stop-color="#21112e" stop-opacity="0"/></radialGradient><linearGradient id="grid" x1="0" y1="0" x2="1" y2="1"><stop stop-color="#21112e"/><stop offset="1" stop-color="#080b12"/></linearGradient></defs><rect width="800" height="400" fill="url(#grid)"/><circle cx="400" cy="190" r="245" fill="url(#glow)"/><g opacity=".12" stroke="#d28cff"><path d="M0 0H800M0 0V400"/><path d="M0 44H800M88 0V400"/><path d="M0 88H800M176 0V400"/><path d="M0 132H800M264 0V400"/><path d="M0 176H800M352 0V400"/><path d="M0 220H800M440 0V400"/><path d="M0 264H800M528 0V400"/><path d="M0 308H800M616 0V400"/><path d="M0 352H800M704 0V400"/><path d="M0 396H800M792 0V400"/></g><g fill="none" stroke="#8e58d8" stroke-opacity=".38" stroke-width="2"><path d="M-60 -81 Q400 80 -242 -106"/><path d="M-242 -106 Q400 180 -292 40"/><path d="M-292 40 Q400 280 55 1"/><path d="M55 1 Q400 80 -390 -130"/><path d="M-390 -130 Q400 180 -571 -37"/><path d="M-571 -37 Q400 280 -290 33"/><path d="M-290 33 Q400 80 -438 -178"/><path d="M-438 -178 Q400 180 -471 -125"/></g><circle cx="-60" cy="-81" r="6" fill="#d28cff"/><circle cx="-242" cy="-106" r="9" fill="#8e58d8"/><circle cx="-292" cy="40" r="12" fill="#d28cff"/><circle cx="55" cy="1" r="6" fill="#8e58d8"/><circle cx="-390" cy="-130" r="9" fill="#d28cff"/><circle cx="-571" cy="-37" r="12" fill="#8e58d8"/><circle cx="-290" cy="33" r="6" fill="#d28cff"/><circle cx="-438" cy="-178" r="9" fill="#8e58d8"/><circle cx="-471" cy="-125" r="12" fill="#d28cff"/><g transform="translate(400 195)"><circle r="82" fill="#21112e" fill-opacity=".78" stroke="#d28cff" stroke-width="2"/><circle r="67" fill="none" stroke="#8e58d8" stroke-opacity=".4"/><text text-anchor="middle" dominant-baseline="central" fill="#f7f4ee" font-family="ui-sans-serif,system-ui" font-size="42" font-weight="750" letter-spacing="4">SVM</text></g><text x="26" y="370" fill="#d28cff" fill-opacity=".8" font-family="ui-monospace,monospace" font-size="12" letter-spacing="3">PROJECT 02 · 11 STEPS</text></svg>