<svg xmlns="http://www.w3.org/2000/svg" viewBox="0 0 800 400" role="img"><title>Tiny GPT From Scratch abstract project artwork</title><defs><radialGradient id="glow"><stop stop-color="#3f9f85" stop-opacity=".5"/><stop offset="1" stop-color="#102a24" stop-opacity="0"/></radialGradient><linearGradient id="grid" x1="0" y1="0" x2="1" y2="1"><stop stop-color="#102a24"/><stop offset="1" stop-color="#080b12"/></linearGradient></defs><rect width="800" height="400" fill="url(#grid)"/><circle cx="400" cy="190" r="245" fill="url(#glow)"/><g opacity=".12" stroke="#86dac1"><path d="M0 0H800M0 0V400"/><path d="M0 44H800M88 0V400"/><path d="M0 88H800M176 0V400"/><path d="M0 132H800M264 0V400"/><path d="M0 176H800M352 0V400"/><path d="M0 220H800M440 0V400"/><path d="M0 264H800M528 0V400"/><path d="M0 308H800M616 0V400"/><path d="M0 352H800M704 0V400"/><path d="M0 396H800M792 0V400"/></g><g fill="none" stroke="#3f9f85" stroke-opacity=".38" stroke-width="2"><path d="M649 64 Q400 80 112 236"/><path d="M112 236 Q400 180 215 211"/><path d="M215 211 Q400 280 638 87"/><path d="M638 87 Q400 80 561 48"/><path d="M561 48 Q400 180 234 52"/><path d="M234 52 Q400 280 112 213"/><path d="M112 213 Q400 80 93 47"/><path d="M93 47 Q400 180 125 257"/></g><circle cx="649" cy="64" r="6" fill="#86dac1"/><circle cx="112" cy="236" r="9" fill="#3f9f85"/><circle cx="215" cy="211" r="12" fill="#86dac1"/><circle cx="638" cy="87" r="6" fill="#3f9f85"/><circle cx="561" cy="48" r="9" fill="#86dac1"/><circle cx="234" cy="52" r="12" fill="#3f9f85"/><circle cx="112" cy="213" r="6" fill="#86dac1"/><circle cx="93" cy="47" r="9" fill="#3f9f85"/><circle cx="125" cy="257" r="12" fill="#86dac1"/><g transform="translate(400 195)"><circle r="82" fill="#102a24" fill-opacity=".78" stroke="#86dac1" stroke-width="2"/><circle r="67" fill="none" stroke="#3f9f85" stroke-opacity=".4"/><text text-anchor="middle" dominant-baseline="central" fill="#f7f4ee" font-family="ui-sans-serif,system-ui" font-size="42" font-weight="750" letter-spacing="4">TGF</text></g><text x="26" y="370" fill="#86dac1" fill-opacity=".8" font-family="ui-monospace,monospace" font-size="12" letter-spacing="3">PROJECT 05 · 166 STEPS</text></svg>