<svg xmlns="http://www.w3.org/2000/svg" viewBox="0 0 800 400" role="img"><title>Trainable Mixture of Experts in CUDA abstract project artwork</title><defs><radialGradient id="glow"><stop stop-color="#d85c8d" stop-opacity=".5"/><stop offset="1" stop-color="#30131f" stop-opacity="0"/></radialGradient><linearGradient id="grid" x1="0" y1="0" x2="1" y2="1"><stop stop-color="#30131f"/><stop offset="1" stop-color="#080b12"/></linearGradient></defs><rect width="800" height="400" fill="url(#grid)"/><circle cx="400" cy="190" r="245" fill="url(#glow)"/><g opacity=".12" stroke="#ff9bc0"><path d="M0 0H800M0 0V400"/><path d="M0 44H800M88 0V400"/><path d="M0 88H800M176 0V400"/><path d="M0 132H800M264 0V400"/><path d="M0 176H800M352 0V400"/><path d="M0 220H800M440 0V400"/><path d="M0 264H800M528 0V400"/><path d="M0 308H800M616 0V400"/><path d="M0 352H800M704 0V400"/><path d="M0 396H800M792 0V400"/></g><g fill="none" stroke="#d85c8d" stroke-opacity=".38" stroke-width="2"><path d="M362 155 Q400 80 299 147"/><path d="M299 147 Q400 180 639 166"/><path d="M639 166 Q400 280 520 199"/><path d="M520 199 Q400 80 502 104"/><path d="M502 104 Q400 180 535 215"/><path d="M535 215 Q400 280 263 159"/><path d="M263 159 Q400 80 498 155"/><path d="M498 155 Q400 180 657 311"/></g><circle cx="362" cy="155" r="6" fill="#ff9bc0"/><circle cx="299" cy="147" r="9" fill="#d85c8d"/><circle cx="639" cy="166" r="12" fill="#ff9bc0"/><circle cx="520" cy="199" r="6" fill="#d85c8d"/><circle cx="502" cy="104" r="9" fill="#ff9bc0"/><circle cx="535" cy="215" r="12" fill="#d85c8d"/><circle cx="263" cy="159" r="6" fill="#ff9bc0"/><circle cx="498" cy="155" r="9" fill="#d85c8d"/><circle cx="657" cy="311" r="12" fill="#ff9bc0"/><g transform="translate(400 195)"><circle r="82" fill="#30131f" fill-opacity=".78" stroke="#ff9bc0" stroke-width="2"/><circle r="67" fill="none" stroke="#d85c8d" stroke-opacity=".4"/><text text-anchor="middle" dominant-baseline="central" fill="#f7f4ee" font-family="ui-sans-serif,system-ui" font-size="42" font-weight="750" letter-spacing="4">TMO</text></g><text x="26" y="370" fill="#ff9bc0" fill-opacity=".8" font-family="ui-monospace,monospace" font-size="12" letter-spacing="3">PROJECT 21 · 52 STEPS</text></svg>