<svg xmlns="http://www.w3.org/2000/svg" viewBox="0 0 800 400" role="img"><title>VeriLLM: Publicly Verifiable Decentralized LLM Inference from Scratch in PyTorch abstract project artwork</title><defs><radialGradient id="glow"><stop stop-color="#d85c8d" stop-opacity=".5"/><stop offset="1" stop-color="#30131f" stop-opacity="0"/></radialGradient><linearGradient id="grid" x1="0" y1="0" x2="1" y2="1"><stop stop-color="#30131f"/><stop offset="1" stop-color="#080b12"/></linearGradient></defs><rect width="800" height="400" fill="url(#grid)"/><circle cx="400" cy="190" r="245" fill="url(#glow)"/><g opacity=".12" stroke="#ff9bc0"><path d="M0 0H800M0 0V400"/><path d="M0 44H800M88 0V400"/><path d="M0 88H800M176 0V400"/><path d="M0 132H800M264 0V400"/><path d="M0 176H800M352 0V400"/><path d="M0 220H800M440 0V400"/><path d="M0 264H800M528 0V400"/><path d="M0 308H800M616 0V400"/><path d="M0 352H800M704 0V400"/><path d="M0 396H800M792 0V400"/></g><g fill="none" stroke="#d85c8d" stroke-opacity=".38" stroke-width="2"><path d="M-550 -159 Q400 80 -157 -145"/><path d="M-157 -145 Q400 180 -249 -115"/><path d="M-249 -115 Q400 280 -254 -211"/><path d="M-254 -211 Q400 80 -545 34"/><path d="M-545 34 Q400 180 11 -90"/><path d="M11 -90 Q400 280 1 -128"/><path d="M1 -128 Q400 80 37 -124"/><path d="M37 -124 Q400 180 -563 37"/></g><circle cx="-550" cy="-159" r="6" fill="#ff9bc0"/><circle cx="-157" cy="-145" r="9" fill="#d85c8d"/><circle cx="-249" cy="-115" r="12" fill="#ff9bc0"/><circle cx="-254" cy="-211" r="6" fill="#d85c8d"/><circle cx="-545" cy="34" r="9" fill="#ff9bc0"/><circle cx="11" cy="-90" r="12" fill="#d85c8d"/><circle cx="1" cy="-128" r="6" fill="#ff9bc0"/><circle cx="37" cy="-124" r="9" fill="#d85c8d"/><circle cx="-563" cy="37" r="12" fill="#ff9bc0"/><g transform="translate(400 195)"><circle r="82" fill="#30131f" fill-opacity=".78" stroke="#ff9bc0" stroke-width="2"/><circle r="67" fill="none" stroke="#d85c8d" stroke-opacity=".4"/><text text-anchor="middle" dominant-baseline="central" fill="#f7f4ee" font-family="ui-sans-serif,system-ui" font-size="42" font-weight="750" letter-spacing="4">VPV</text></g><text x="26" y="370" fill="#ff9bc0" fill-opacity=".8" font-family="ui-monospace,monospace" font-size="12" letter-spacing="3">PROJECT 15 · 57 STEPS</text></svg>